<svg xmlns="http://www.w3.org/2000/svg" viewBox="490 310 600 400" fill="#2a2826">
<path d="M0 0 C2.5032139 0.00315266 5.00523234 -0.02037326 7.50830078 -0.0456543 C22.82750788 -0.10902052 37.61232275 1.34728197 51.77001953 7.56567383 C53.1726001 8.16545044 53.1726001 8.16545044 54.60351562 8.77734375 C61.07243877 11.61692982 66.97916941 14.56413707 72.27001953 19.31567383 C72.74584473 19.74219238 73.22166992 20.16871094 73.71191406 20.6081543 C91.70398046 36.99167709 104.00722609 62.92498771 105.39257812 87.48876953 C105.39459124 89.09825493 105.33993116 90.70770627 105.27001953 92.31567383 C104.75439453 91.65567383 104.23876953 90.99567383 103.70751953 90.31567383 C89.62521365 72.98360505 73.08168611 60.89472388 50.70751953 57.06567383 C49.72372314 56.89729004 48.73992676 56.72890625 47.72631836 56.55541992 C-8.07006798 47.8725609 -64.56886018 71.83260809 -112.13525391 98.85522461 C-115.80188105 100.91899612 -119.50566578 102.91180422 -123.20849609 104.90966797 C-132.63778373 110.00366028 -141.93714516 115.27410929 -151.13720703 120.76977539 C-154.34915717 122.68484773 -157.56671241 124.5904059 -160.78466797 126.49536133 C-167.43486334 130.43250524 -174.08296441 134.37316381 -180.72998047 138.31567383 C-184.18520906 134.48374985 -185.5008107 129.90932002 -187.16357422 125.12426758 C-187.48278336 124.22378189 -187.80199249 123.3232962 -188.13087463 122.39552307 C-189.14966599 119.51701716 -190.15877382 116.63522725 -191.16748047 113.75317383 C-191.84195722 111.84083386 -192.51708085 109.9287219 -193.19287109 108.0168457 C-194.17116299 105.24875603 -195.14829633 102.48030334 -196.12045288 99.71005249 C-198.0541154 94.20132033 -200.03611957 88.71500842 -202.12084961 83.26123047 C-202.72998047 81.31567383 -202.72998047 81.31567383 -202.72998047 78.31567383 C-201.66807495 77.72834473 -201.66807495 77.72834473 -200.5847168 77.12915039 C-197.85447098 75.61815416 -195.12480643 74.10611539 -192.39569092 72.59307861 C-191.15544708 71.90549753 -189.91508974 71.21812114 -188.67462158 70.53094482 C-181.74601593 66.69114889 -174.84079963 62.82179449 -167.99707031 58.83203125 C-140.58122538 42.88562379 -111.75001103 27.6752142 -81.72998047 17.31567383 C-80.88097168 17.0159668 -80.03196289 16.71625977 -79.15722656 16.4074707 C-67.43030534 12.27893781 -55.63059406 8.60124638 -43.60498047 5.44067383 C-42.52821045 5.15458252 -41.45144043 4.86849121 -40.34204102 4.57373047 C-26.88751167 1.13758715 -13.82863582 -0.03624278 0 0 Z" transform="translate(950.72998046875,359.684326171875)"/>
<path d="M0 0 C0.20979492 0.58450928 0.41958984 1.16901855 0.63574219 1.77124023 C1.28754375 3.58639931 1.93977314 5.40140479 2.59228516 7.21630859 C3.37425553 9.39203975 4.15515335 11.56815664 4.93505859 13.74462891 C7.08015551 19.71782207 9.24596232 25.68165791 11.45935059 31.62983704 C12.57746083 34.63563626 13.68898353 37.64385605 14.80041504 40.65213013 C15.35008235 42.13389243 15.90306297 43.61442986 16.45935059 45.09371948 C17.2442504 47.18188957 18.01774227 49.27397058 18.7890625 51.3671875 C19.46509521 53.17872314 19.46509521 53.17872314 20.15478516 55.02685547 C21 58 21 58 20 61 C18.26367188 62.29589844 18.26367188 62.29589844 15.96875 63.609375 C15.10830078 64.10896729 14.24785156 64.60855957 13.36132812 65.12329102 C12.41708984 65.66010498 11.47285156 66.19691895 10.5 66.75 C8.47849361 67.91941021 6.45768643 69.09002976 4.4375 70.26171875 C3.37917969 70.87321777 2.32085938 71.4847168 1.23046875 72.11474609 C-2.99970278 74.58341179 -7.18494177 77.12283223 -11.37133789 79.66479492 C-23.71994666 87.15490307 -36.23234369 94.25056674 -49 101 C-50.03930664 101.5576001 -50.03930664 101.5576001 -51.09960938 102.12646484 C-63.60750183 108.81636821 -76.76772459 113.93213302 -90 119 C-90.89928223 119.35352539 -91.79856445 119.70705078 -92.72509766 120.07128906 C-110.24790407 126.76338402 -128.94116556 129.59474908 -147.625 129.5 C-148.88538086 129.49387695 -150.14576172 129.48775391 -151.44433594 129.48144531 C-175.70027832 128.982725 -197.2431021 121.67898248 -214.59033203 104.39550781 C-215.89878579 103.10019751 -217.24304174 101.84132761 -218.58984375 100.5859375 C-237.18318827 82.0807131 -245.9798604 51.77053801 -246.27026367 26.05078125 C-246.24287207 23.36310376 -246.15261025 20.68339691 -246 18 C-243.68815186 20.91700839 -241.94894639 23.88028132 -240.25 27.1875 C-231.61047246 43.09352503 -218.11836138 54.11566559 -200.640625 59.29394531 C-189.54124793 62.26171514 -179.13111951 63.50038766 -167.625 63.375 C-166.94857452 63.37034729 -166.27214905 63.36569458 -165.57522583 63.36090088 C-155.076398 63.27651336 -145.18693119 62.62873431 -135 60 C-134.17306641 59.79600586 -133.34613281 59.59201172 -132.49414062 59.38183594 C-105.13438795 52.57656798 -79.20216581 42.13741004 -54.19970703 29.14111328 C-51.59567276 27.79025244 -48.98311005 26.45645284 -46.37109375 25.12109375 C-37.0514204 20.33310873 -27.85790897 15.50748623 -19.0078125 9.890625 C-15.48769692 7.67798092 -11.91503275 5.57486773 -8.3125 3.5 C-7.71107178 3.14905273 -7.10964355 2.79810547 -6.48999023 2.43652344 C-2.23713815 0 -2.23713815 0 0 0 Z" transform="translate(731,449)"/>
<path d="M0 0 C2.4712363 1.22215826 4.89223756 2.48820546 7.3125 3.8125 C21.19172585 10.72621885 35.73015315 13.38398807 51.125 13.3125 C52.33260986 13.30976074 53.54021973 13.30702148 54.78442383 13.30419922 C68.48205264 13.14873725 82.62945389 12.24525825 95.91796875 8.72265625 C98.85014712 8.04657811 99.66976315 7.8673972 102.5390625 9.01953125 C103.22742188 9.61121094 103.91578125 10.20289063 104.625 10.8125 C137.76277316 36.89315481 182.30371535 49.49029214 223.9375 49.3125 C224.84318726 49.31034485 225.74887451 49.3081897 226.68200684 49.30596924 C247.54514796 49.2263319 266.59607862 47.12373244 286.52905273 40.73022461 C289.99299892 39.70654483 293.49223695 38.86155179 297 38 C301.66836395 49.72889922 306.02322834 61.53000275 310.08227539 73.48339844 C310.95648495 76.05586552 311.83826181 78.62565888 312.72070312 81.1953125 C313.28168867 82.83839196 313.84225268 84.48161542 314.40234375 86.125 C314.6647435 86.88941406 314.92714325 87.65382813 315.19749451 88.44140625 C317 93.7693774 317 93.7693774 317 96 C312.80532177 96.5549965 308.61016104 97.10615763 304.41455078 97.65405273 C302.99286924 97.8402215 301.57131499 98.02736541 300.14990234 98.21557617 C298.08465306 98.48885369 296.01894237 98.75839812 293.953125 99.02734375 C292.71723633 99.18968506 291.48134766 99.35202637 290.20800781 99.51928711 C280.88288331 100.63586776 271.60768179 101.16229704 262.21875 101.203125 C261.13435638 101.21004868 260.04996277 101.21697235 258.93270874 101.22410583 C255.45510187 101.24128262 251.97764728 101.24769216 248.5 101.25 C247.31392151 101.25133942 246.12784302 101.25267883 244.90582275 101.25405884 C228.32133457 101.24999133 212.0703482 100.9009509 195.64892578 98.40136719 C193.19492404 98.02953503 190.7411446 97.71267328 188.27734375 97.4140625 C155.81265271 93.21801793 122.8419045 83.14725356 93 70 C92.21141602 69.6592041 91.42283203 69.3184082 90.61035156 68.96728516 C70.01277183 60.00296196 50.40034746 48.21584552 33 34 C32.39124023 33.5040332 31.78248047 33.00806641 31.15527344 32.49707031 C19.71698146 23.09895917 8.67528176 13.08076485 0 1 C0 0.67 0 0.34 0 0 Z" transform="translate(532,580)"/>
<path d="M0 0 C1.96281755 0.45118238 3.9310604 0.87861214 5.89990234 1.30273438 C35.11752788 7.99909828 63.74826417 19.56039959 90.20068359 33.50585938 C90.20068359 34.16585937 90.20068359 34.82585937 90.20068359 35.50585938 C87.87368911 36.66632668 85.54038613 37.80902541 83.20068359 38.94335938 C82.55228516 39.26884766 81.90388672 39.59433594 81.23583984 39.9296875 C74.6086185 43.11206607 69.26383797 44.45121531 62.21240234 41.99414062 C60.43041426 41.28687706 58.65566279 40.56113832 56.88818359 39.81835938 C55.1216212 39.10521574 53.35469273 38.39297826 51.58740234 37.68164062 C50.70173584 37.32150879 49.81606934 36.96137695 48.90356445 36.59033203 C5.70519801 19.25791909 -53.71569066 12.15561965 -97.79931641 30.50585938 C-113.25237575 37.20620933 -124.05825797 47.67498267 -130.81884766 62.99023438 C-136.14863289 76.66506183 -132.86046333 93.22695647 -127.66650391 106.37304688 C-123.17928946 116.14982538 -116.57259812 122.93917714 -106.79931641 127.50585938 C-105.00300781 127.85390625 -105.00300781 127.85390625 -103.17041016 128.20898438 C-99.79931641 129.50585938 -99.79931641 129.50585938 -98.02197266 132.84179688 C-97.60565648 134.1792952 -97.21963435 135.52653768 -96.86181641 136.88085938 C-96.65492188 137.55375 -96.44802734 138.22664062 -96.23486328 138.91992188 C-95.2415406 142.27279844 -94.79931641 144.98310411 -94.79931641 148.50585938 C-101.62093471 150.69353447 -108.05388337 150.87810648 -115.17529297 150.87646484 C-117.26697129 150.88079245 -119.35645407 150.91704551 -121.44775391 150.95507812 C-139.6472098 151.10854503 -155.13571428 145.66908447 -168.54931641 132.94335938 C-183.81092462 116.40995047 -184.7082211 96.17791423 -184.02587891 74.84619141 C-183.5508652 67.84281046 -181.64276391 61.91299438 -178.79931641 55.50585938 C-178.34169922 54.425625 -177.88408203 53.34539062 -177.41259766 52.23242188 C-174.16015199 45.1572387 -169.99046896 39.28383787 -164.79931641 33.50585938 C-163.98591797 32.59835937 -163.17251953 31.69085938 -162.33447266 30.75585938 C-147.4275262 14.99521114 -127.45806805 6.15778199 -106.79931641 0.50585938 C-105.81705078 0.22097656 -104.83478516 -0.06390625 -103.82275391 -0.35742188 C-70.60866235 -9.08619257 -33.21911378 -7.67287431 0 0 Z" transform="translate(682.79931640625,343.494140625)"/>
<path d="M0 0 C0.66 0 1.32 0 2 0 C3.6745884 2.04671916 5.22016085 4.09768769 6.75 6.25 C7.23025635 6.91749268 7.7105127 7.58498535 8.20532227 8.27270508 C9.25441925 9.73549279 10.29990535 11.20087511 11.34228516 12.66845703 C13.02463518 15.03464889 14.72111586 17.39028752 16.41796875 19.74609375 C24.08760725 30.4709689 31.16153605 41.44020735 37.75927734 52.85595703 C38.86405711 54.76508256 39.98590336 56.66277398 41.11328125 58.55859375 C41.67402344 59.52925781 42.23476563 60.49992188 42.8125 61.5 C43.27269531 62.2940625 43.73289062 63.088125 44.20703125 63.90625 C45.19579902 66.51698658 45.1396223 67.45814679 44 70 C37.26717882 78.22900367 28.46951452 84.67673746 20 91 C19.0409375 91.72703125 18.081875 92.4540625 17.09375 93.203125 C-3.231498 107.95532113 -26.2679091 118.86152609 -49.84960938 127.22314453 C-51.83981814 127.9421323 -53.80703664 128.70514934 -55.77734375 129.4765625 C-61.28313156 131.55087096 -66.9593923 133.05565327 -72.625 134.625 C-73.73101563 134.93695312 -74.83703125 135.24890625 -75.9765625 135.5703125 C-80.9772781 136.96474281 -85.86258371 138.21204105 -91 139 C-96.12905803 127.28830475 -100.40660538 115.24622047 -104.8125 103.25 C-105.60849148 101.08845604 -106.4047135 98.92699697 -107.20117188 96.765625 C-109.1367751 91.51139288 -111.06952411 86.25611799 -113 81 C-110.38777434 78.24704279 -107.97271569 76.87376633 -104.50390625 75.28515625 C-103.39756836 74.76993408 -102.29123047 74.25471191 -101.15136719 73.72387695 C-99.96704102 73.17562256 -98.78271484 72.62736816 -97.5625 72.0625 C-85.57222902 66.42390868 -74.16452326 60.14569803 -63 53 C-62.3311377 52.57654297 -61.66227539 52.15308594 -60.97314453 51.71679688 C-46.31966974 42.39823543 -32.66979048 31.86870556 -20 20 C-18.63038218 18.8062964 -17.25575563 17.61830276 -15.875 16.4375 C-10.72826669 11.95931143 -5.36506239 7.27947792 -1.36328125 1.73046875 C-0.91339844 1.15941406 -0.46351563 0.58835937 0 0 Z" transform="translate(959,532)"/>
<path d="M0 0 C11.17675645 0.65745626 21.14031463 5.34124699 30 12 C30.886875 12.61875 31.77375 13.2375 32.6875 13.875 C43.85738069 24.13921469 49.54649175 39.55983367 50.31640625 54.50390625 C51.15030646 87.84559885 39.18460712 123.83012912 17 149 C16.34 149.33 15.68 149.66 15 150 C14.26523437 148.57300781 14.26523437 148.57300781 13.515625 147.1171875 C2.75692023 126.78106729 -10.57961756 107.57567472 -24.3059082 89.13867188 C-26.3087916 86.43815494 -27.9289146 84.21325619 -29 81 C-28.13891602 79.09326172 -28.13891602 79.09326172 -26.75390625 76.9296875 C-26.25004395 76.12442627 -25.74618164 75.31916504 -25.22705078 74.48950195 C-24.67774902 73.62671631 -24.12844727 72.76393066 -23.5625 71.875 C-9.49451152 49.07664378 -1.27803723 26.80514934 0 0 Z" transform="translate(1002,435)"/>
<path d="M0 0 C1.04571167 0.68497559 1.04571167 0.68497559 2.11254883 1.38378906 C2.90628906 1.90005859 3.7000293 2.41632813 4.51782227 2.94824219 C5.35990234 3.50962891 6.20198242 4.07101562 7.06958008 4.64941406 C7.95162109 5.23142578 8.83366211 5.8134375 9.74243164 6.41308594 C23.77213105 15.73944783 37.15522604 25.71217028 50.12817383 36.45410156 C54.00724569 39.65066412 57.94889006 42.76988066 61.88208008 45.89941406 C57.31399177 52.45863267 52.04345776 58.08600396 46.38208008 63.71191406 C45.49786377 64.59339111 44.61364746 65.47486816 43.70263672 66.38305664 C37.77271657 72.21938894 31.69505759 77.58894589 25.02661133 82.55566406 C21.77033974 84.98269879 18.64209233 87.50560791 15.50708008 90.08691406 C14.16516602 91.19099609 14.16516602 91.19099609 12.79614258 92.31738281 C12.16450195 92.83945312 11.53286133 93.36152344 10.88208008 93.89941406 C10.34969727 93.22394531 9.81731445 92.54847656 9.26879883 91.85253906 C-8.01161734 70.4712058 -27.12378683 54.8209972 -49.93041992 39.64941406 C-50.84500977 39.03839844 -51.75959961 38.42738281 -52.7019043 37.79785156 C-53.58813477 37.20746094 -54.47436523 36.61707031 -55.38745117 36.00878906 C-56.17740479 35.4825293 -56.9673584 34.95626953 -57.78125 34.4140625 C-60.19401907 32.85008598 -62.64416756 31.36465137 -65.11791992 29.89941406 C-63.85658329 26.11540416 -62.75161244 25.83297061 -59.32495117 23.93066406 C-58.31247314 23.36460449 -57.29999512 22.79854492 -56.25683594 22.21533203 C-55.15911865 21.6160791 -54.06140137 21.01682617 -52.93041992 20.39941406 C-51.81014404 19.7808252 -50.68986816 19.16223633 -49.53564453 18.52490234 C-42.15024954 14.47701268 -34.70515894 10.55678397 -27.18041992 6.77441406 C-26.31328369 6.33806641 -25.44614746 5.90171875 -24.55273438 5.45214844 C-20.34940117 3.37426048 -16.10645697 1.39094446 -11.80151367 -0.46777344 C-11.02219482 -0.80663574 -10.24287598 -1.14549805 -9.43994141 -1.49462891 C-5.81847426 -2.43969057 -3.27504445 -1.70189054 0 0 Z" transform="translate(898.117919921875,456.1005859375)"/>
<path d="M0 0 C0.64718994 0.33741211 1.29437988 0.67482422 1.96118164 1.02246094 C15.81745112 8.05289461 29.34921861 13.40395924 44.64868164 16.33496094 C45.87079346 16.58721436 47.09290527 16.83946777 48.35205078 17.09936523 C58.67805707 19.15248084 68.57603818 19.78024313 79.08618164 19.64746094 C80.62825409 19.63879543 82.17032769 19.63033371 83.71240234 19.62207031 C92.93655107 19.54179179 102.02602901 19.11602527 111.16040039 17.77246094 C115.0505494 17.28455871 118.73184695 17.26586573 122.64868164 17.33496094 C123.32173182 18.9364598 123.98690391 20.54127123 124.64868164 22.14746094 C125.01993164 23.04078125 125.39118164 23.93410156 125.77368164 24.85449219 C126.64868164 27.33496094 126.64868164 27.33496094 126.64868164 30.33496094 C73.84809777 46.52828845 17.79590598 44.81539604 -31.66552734 19.16381836 C-34.64396831 17.57956602 -37.60614689 15.96927538 -40.54980469 14.32128906 C-42.4603541 13.2752639 -44.39785753 12.29809011 -46.35131836 11.33496094 C-46.35131836 10.67496094 -46.35131836 10.01496094 -46.35131836 9.33496094 C-45.75295166 9.12403809 -45.15458496 8.91311523 -44.53808594 8.69580078 C-41.74435844 7.70687544 -38.9536767 6.70975029 -36.16381836 5.70996094 C-35.15963867 5.35111816 -34.15545898 4.99227539 -33.12084961 4.62255859 C-26.47990378 2.21243441 -20.22599189 -0.46363608 -14.00756836 -3.82910156 C-8.85650036 -5.45017296 -4.55134185 -2.35946905 0 0 Z" transform="translate(695.351318359375,572.6650390625)"/>
<path d="M0 0 C3.08984375 1.41015625 3.08984375 1.41015625 5.9375 3.0625 C6.89527344 3.61035156 7.85304688 4.15820312 8.83984375 4.72265625 C9.55269531 5.14417969 10.26554688 5.56570313 11 6 C11 6.66 11 7.32 11 8 C10.48953125 8.2902002 9.9790625 8.58040039 9.453125 8.87939453 C-2.25363507 15.53968999 -13.91777984 22.26856086 -25.54492188 29.06689453 C-31.76114708 32.69974034 -37.99499001 36.29571976 -44.2578125 39.84765625 C-47.20881212 41.5328884 -50.13308931 43.26042176 -53.0546875 44.99609375 C-83.77528346 63.19932346 -115.51570685 79.8978026 -148.5 93.625 C-150.24349731 94.3526355 -150.24349731 94.3526355 -152.0222168 95.0949707 C-172.30607761 103.37621797 -172.30607761 103.37621797 -180 103 C-182.66038099 97.4373852 -183.96232949 92.06732052 -185 86 C-183.42992187 85.54173828 -183.42992187 85.54173828 -181.828125 85.07421875 C-155.00537902 77.04014745 -129.92743018 65.58209502 -105 53 C-103.90220215 52.44634766 -102.8044043 51.89269531 -101.67333984 51.32226562 C-89.11102806 44.94813703 -76.81252948 38.14752403 -64.578125 31.16796875 C-59.2684223 28.14188038 -53.92315657 25.18467356 -48.5625 22.25 C-42.60798111 18.98789824 -36.66646437 15.70565314 -30.75 12.375 C-30.11143066 12.01841309 -29.47286133 11.66182617 -28.81494141 11.29443359 C-25.40779465 9.38598094 -22.03960717 7.42954525 -18.69921875 5.40625 C-17.98604492 4.9829541 -17.27287109 4.5596582 -16.53808594 4.12353516 C-15.17913388 3.31580842 -13.82874408 2.49342142 -12.48925781 1.65380859 C-7.90547037 -1.04303028 -5.10694492 -1.39972458 0 0 Z" transform="translate(786,384)"/>
<path d="M0 0 C1.10021484 0.88558594 1.10021484 0.88558594 2.22265625 1.7890625 C9.60667094 7.944519 16.78665505 15.79738384 20 25 C19.52691406 24.63648438 19.05382813 24.27296875 18.56640625 23.8984375 C16.39200289 22.24538232 14.20061824 20.6179925 12 19 C11.34902344 18.52046875 10.69804688 18.0409375 10.02734375 17.546875 C-0.08205864 10.45665829 -11.33387999 5.0571883 -23.23046875 1.7890625 C-26 1 -26 1 -28.35913086 0.01928711 C-39.37349613 -4.23188928 -52.00606746 -3.43347878 -63.625 -3.4375 C-64.57122223 -3.44056152 -65.51744446 -3.44362305 -66.49234009 -3.44677734 C-82.18379249 -3.46005226 -96.79062658 -2.09592065 -112 2 C-112.50904657 0.12743583 -113.00682455 -1.74819341 -113.5 -3.625 C-113.7784375 -4.66914063 -114.056875 -5.71328125 -114.34375 -6.7890625 C-114.99118596 -9.95687418 -115.1161292 -12.77741467 -115 -16 C-74.40619706 -26.63623676 -33.91972189 -29.22517948 0 0 Z" transform="translate(1012,348)"/>
<path d="M0 0 C1.640625 1.5234375 1.640625 1.5234375 3.25 3.375 C3.79140625 3.98085938 4.3328125 4.58671875 4.890625 5.2109375 C5.25671875 5.80132813 5.6228125 6.39171875 6 7 C4.83827646 10.48517063 4.31060197 10.69183885 1.23828125 12.41796875 C0.06471069 13.08675049 0.06471069 13.08675049 -1.13256836 13.76904297 C-1.9756958 14.23713379 -2.81882324 14.70522461 -3.6875 15.1875 C-4.54802979 15.6736377 -5.40855957 16.15977539 -6.29516602 16.66064453 C-8.04202578 17.64748473 -9.7906393 18.63122713 -11.54101562 19.61181641 C-13.69295888 20.82666443 -15.8270578 22.0648392 -17.953125 23.32421875 C-25.07813011 27.53050003 -32.26254011 31.05239623 -40 34 C-40.84026396 32.23244474 -41.67198722 30.46082737 -42.5 28.6875 C-42.9640625 27.70136719 -43.428125 26.71523438 -43.90625 25.69921875 C-45 23 -45 23 -45 20 C-44.13761719 19.68289063 -43.27523437 19.36578125 -42.38671875 19.0390625 C-34.69343324 16.09822897 -27.34863007 12.78409424 -20.0625 8.9375 C-19.28285889 8.5264502 -18.50321777 8.11540039 -17.69995117 7.69189453 C-13.20678391 5.28410493 -8.92412527 2.71514922 -4.72436523 -0.17749023 C-3 -1 -3 -1 0 0 Z" transform="translate(881,562)"/>
<path d="M0 0 C0.508783 1.55966218 1.00663469 3.12289241 1.5 4.6875 C1.7784375 5.55761719 2.056875 6.42773438 2.34375 7.32421875 C2.99850805 9.99391677 3.11831495 12.26396684 3 15 C1.98164062 15.27972656 0.96328125 15.55945313 -0.0859375 15.84765625 C-9.02660238 18.36145168 -17.67506616 21.27404518 -26.28466797 24.76391602 C-31.82063414 27 -31.82063414 27 -34 27 C-35.00460531 24.87717331 -36.00355602 22.75166979 -37 20.625 C-37.556875 19.44164062 -38.11375 18.25828125 -38.6875 17.0390625 C-40 14 -40 14 -40 12 C-34.00982208 8.87982019 -27.7951105 6.65671411 -21.43188477 4.44628906 C-19.43530809 3.74923475 -17.44540752 3.03497825 -15.45507812 2.3203125 C-14.17745789 1.87392652 -12.89947469 1.42857775 -11.62109375 0.984375 C-10.4705249 0.57928711 -9.31995605 0.17419922 -8.13452148 -0.24316406 C-4.93043433 -1.01679676 -3.12264583 -0.93405298 0 0 Z" transform="translate(882,339)"/>
</svg>
