<svg xmlns="http://www.w3.org/2000/svg" viewBox="490 310 600 400" fill="#f0ede9">
<path d="M0 0 C5.3856208 13.06886139 9.87975581 26.39514279 14.2668457 39.82397461 C14.49879639 40.53070816 14.73074707 41.23744171 14.96972656 41.96559143 C15.60740423 43.91021704 16.24096378 45.85619166 16.87426758 47.80224609 C17.855579 50.89326409 17.855579 50.89326409 19.2097168 53.12353516 C20.34592175 55.82136377 20.00321179 57.27908595 19 60 C17.08007812 61.70654297 17.08007812 61.70654297 14.53125 63.2421875 C13.10425781 64.11786377 13.10425781 64.11786377 11.6484375 65.01123047 C10.60945312 65.62627441 9.57046875 66.24131836 8.5 66.875 C7.43007813 67.52484863 6.36015625 68.17469727 5.2578125 68.84423828 C2.99361981 70.21614641 0.72691558 71.58177078 -1.546875 72.9375 C-4.90653628 74.94081154 -8.25091951 76.96871066 -11.59375 79 C-22.36823057 85.5298151 -33.18253085 91.98036975 -44.23632812 98.02783203 C-45.96361239 98.97994249 -47.67732666 99.95653997 -49.390625 100.93359375 C-69.98654557 112.40912348 -92.97947153 121.81117511 -116 127 C-116.66999023 127.15243164 -117.33998047 127.30486328 -118.03027344 127.46191406 C-137.90530405 131.76801569 -169.04832873 135.41021369 -187 124 C-188.49017188 123.45167971 -189.9908148 122.93108626 -191.5 122.4375 C-211.43631931 114.68945363 -223.64874125 95.62620782 -232 77 C-233.19812924 74.03320377 -234.15495762 71.08326275 -235 68 C-235.25265625 67.20078125 -235.5053125 66.4015625 -235.765625 65.578125 C-240.6707116 49.32401452 -240.26128861 32.80286762 -240 16 C-239.34 16 -238.68 16 -238 16 C-237.78085937 16.60585938 -237.56171875 17.21171875 -237.3359375 17.8359375 C-230.63484304 35.5420814 -219.6900927 47.61336197 -202.55859375 55.60546875 C-190.56729814 60.43313322 -179.05104916 61.50242409 -166.25 61.5625 C-165.07645966 61.57043076 -165.07645966 61.57043076 -163.87921143 61.57852173 C-147.48224895 61.61078364 -132.72646454 58.62737609 -117 54 C-116.10958008 53.74943848 -115.21916016 53.49887695 -114.30175781 53.24072266 C-108.36273312 51.53610947 -102.70801237 49.35425998 -97 47 C-95.41112478 46.37513581 -93.82127561 45.75274255 -92.23046875 45.1328125 C-70.8494599 36.67693818 -50.33186664 26.4392451 -30.0625 15.625 C-29.45414307 15.30046844 -28.84578613 14.97593689 -28.21899414 14.64157104 C-22.80109874 11.7437191 -17.40064646 8.82108699 -12.08154297 5.74511719 C-11.43970566 5.3741391 -10.79786835 5.00316101 -10.13658142 4.62094116 C-8.90114742 3.90372234 -7.6680885 3.18239241 -6.4377594 2.45645142 C-2.21729847 0 -2.21729847 0 0 0 Z" transform="translate(743,442)"/>
<path d="M0 0 C0.73031433 -0.0080365 1.46062866 -0.016073 2.21307373 -0.02435303 C24.90160815 -0.21412167 49.6614516 4.76748071 67.0625 20.375 C67.7740625 20.99503906 68.485625 21.61507813 69.21875 22.25390625 C84.39469401 36.36441583 94.51192788 58.77458101 95.3046875 79.5625 C95.31130608 82.84531424 95.24945693 86.09806046 95.0625 89.375 C94.47984375 88.63636719 93.8971875 87.89773438 93.296875 87.13671875 C90.78792914 84.03562657 88.13719497 81.09362494 85.453125 78.14453125 C84.0625 76.375 84.0625 76.375 84.0625 74.375 C83.49273438 74.11203125 82.92296875 73.8490625 82.3359375 73.578125 C79.90845236 72.29347651 77.87573423 70.78297952 75.6875 69.125 C69.57934675 64.79425619 63.01767597 62.06838573 56.0625 59.375 C55.26972656 59.0553125 54.47695313 58.735625 53.66015625 58.40625 C24.00733814 47.36236989 -12.85581618 55.04951944 -41.9375 64.375 C-42.75927734 64.63603516 -43.58105469 64.89707031 -44.42773438 65.16601562 C-53.06046882 67.92493076 -61.5857613 70.84741247 -69.9375 74.375 C-71.35778975 74.95642137 -72.77839527 75.53707163 -74.19921875 76.1171875 C-83.87243605 80.09328307 -93.31062 84.351283 -102.59472656 89.16455078 C-105.27287472 90.54827927 -107.96073045 91.91227846 -110.6484375 93.27734375 C-129.79756173 103.05796463 -148.3747954 113.74160805 -166.58374023 125.17626953 C-171.72468732 128.375 -171.72468732 128.375 -173.9375 128.375 C-174.18806152 127.64313477 -174.43862305 126.91126953 -174.69677734 126.15722656 C-175.67707588 123.2967999 -176.65883511 120.43687972 -177.64169312 117.57733154 C-178.08823582 116.27770356 -178.53438368 114.97793984 -178.98013306 113.67803955 C-181.54505938 106.20195905 -184.14843242 98.743405 -186.86328125 91.3203125 C-187.09672241 90.67920532 -187.33016357 90.03809814 -187.57067871 89.37756348 C-188.69514182 86.2895829 -189.8280702 83.20529924 -190.97607422 80.12597656 C-191.37971191 79.01963867 -191.78334961 77.91330078 -192.19921875 76.7734375 C-192.55975342 75.80067871 -192.92028809 74.82791992 -193.29174805 73.82568359 C-193.9375 71.375 -193.9375 71.375 -192.9375 68.375 C-190.78637695 66.93969727 -190.78637695 66.93969727 -187.92578125 65.44140625 C-186.8692334 64.88114746 -185.81268555 64.32088867 -184.72412109 63.74365234 C-183.00443115 62.84960693 -183.00443115 62.84960693 -181.25 61.9375 C-180.06016598 61.31043803 -178.87088089 60.68233346 -177.68212891 60.05322266 C-175.86383729 59.09109632 -174.04521167 58.12967787 -172.22467041 57.17181396 C-167.60671706 54.7406992 -163.02987445 52.24177569 -158.46386719 49.71484375 C-109.2919482 22.54803768 -56.98875735 0.34890151 0 0 Z" transform="translate(948.9375,364.625)"/>
<path d="M0 0 C3.15011351 1.21939878 6.23495904 2.54781455 9.3125 3.9375 C22.75834423 9.90851635 35.23783811 12.53606713 50 12.375 C50.72178436 12.37167664 51.44356873 12.36835327 52.18722534 12.3649292 C65.44338434 12.29344371 78.36518602 11.29585225 91.21484375 7.8984375 C98.54345067 6.15893328 98.54345067 6.15893328 102.04296875 8.1796875 C102.75066406 8.73914063 103.45835937 9.29859375 104.1875 9.875 C116.07400324 18.58706618 129.31123337 25.04152047 143.05078125 30.25927734 C144.8527394 30.9440395 146.6455948 31.65262794 148.4375 32.36328125 C155.26939756 34.96552525 162.15093855 36.90539188 169.25 38.625 C170.04631836 38.81916504 170.84263672 39.01333008 171.66308594 39.21337891 C174.43400089 39.85723163 177.21112507 40.43859609 180 41 C180.63211395 41.12881561 181.26422791 41.25763123 181.91549683 41.39035034 C193.02622364 43.60401237 203.76535863 44.45137428 215.08666992 44.33618164 C217.56527203 44.31247349 220.04279619 44.31567142 222.52148438 44.32226562 C237.62893133 44.29797487 252.12758291 42.83187227 266.8125 39.125 C267.82763672 38.88136719 268.84277344 38.63773438 269.88867188 38.38671875 C276.24946971 36.82384926 282.42570727 34.92805344 288.6081543 32.76513672 C291 32 291 32 293 32 C293.30550781 32.89074219 293.61101562 33.78148437 293.92578125 34.69921875 C297.77392803 45.80225828 301.91989557 56.78623538 306.12817383 67.7565918 C313 85.72859386 313 85.72859386 313 90 C271.69844326 99.02634541 228.44108412 101.89100309 186.46484375 95.38037109 C184.14644029 95.02259845 181.82798537 94.71363349 179.5 94.42578125 C170.98419659 93.3351302 170.98419659 93.3351302 167.09765625 92.01171875 C163.64611105 90.8844171 160.34386537 90.39152721 156.75 89.875 C113.44907158 82.80881434 70.50876506 61.61030112 36 35 C35.15695312 34.35289062 34.31390625 33.70578125 33.4453125 33.0390625 C21.20332004 23.45667223 10.27575384 12.64382757 0 1 C0 0.67 0 0.34 0 0 Z" transform="translate(543,572)"/>
<path d="M0 0 C1.18703018 -0.01045349 1.18703018 -0.01045349 2.39804077 -0.02111816 C4.98286163 -0.03863319 7.56746577 -0.0448528 10.15234375 -0.046875 C11.47131149 -0.04838562 11.47131149 -0.04838562 12.81692505 -0.04992676 C32.59424938 -0.03459812 51.96490393 1.1891994 71.0703125 6.65283203 C73.32598577 7.26747027 75.59269104 7.80020418 77.87109375 8.32421875 C88.70330823 10.83740132 98.84648982 14.15073811 109.11767578 18.39941406 C111.87632173 19.52363571 114.67068378 20.54588756 117.46484375 21.578125 C123.29297738 23.81971486 129.00752303 26.29797089 134.71484375 28.828125 C135.59317871 29.21274902 136.47151367 29.59737305 137.37646484 29.99365234 C138.61517334 30.54980225 138.61517334 30.54980225 139.87890625 31.1171875 C140.98806396 31.6114624 140.98806396 31.6114624 142.11962891 32.11572266 C144.16382535 33.24395698 145.53177922 34.47775153 147.08984375 36.203125 C144.69480688 37.32984675 142.29885665 38.45455058 139.90234375 39.578125 C138.89204102 40.05378906 138.89204102 40.05378906 137.86132812 40.5390625 C136.53998238 41.15783904 135.21595498 41.77092517 133.88916016 42.37792969 C132.38954486 43.06567727 130.90037871 43.77615195 129.4140625 44.4921875 C124.51773985 45.98988619 120.33307777 43.53914151 115.8581543 41.62548828 C103.79442264 36.48050282 91.4397131 33.08457916 78.74023438 29.88916016 C76.64864396 29.34776654 74.57415401 28.74031897 72.5078125 28.109375 C57.74738195 24.19575227 42.09060518 23.91728224 26.90234375 23.953125 C25.87358124 23.95442413 25.87358124 23.95442413 24.82403564 23.95574951 C9.62519169 24.00540256 -4.30706797 25.02867661 -18.91015625 29.203125 C-19.96203125 29.49058594 -21.01390625 29.77804687 -22.09765625 30.07421875 C-39.91289466 35.40457599 -54.79828215 46.39362505 -64.22265625 62.4375 C-69.93840312 73.28060803 -70.83334898 86.14717606 -68 98.015625 C-64.48953489 107.58756846 -59.42143329 117.51488923 -49.91015625 122.203125 C-47.51845402 122.68254889 -45.12214791 123.13934648 -42.72265625 123.578125 C-36.66942979 125.07034589 -36.66942979 125.07034589 -34.79150391 127.87207031 C-32.18972362 133.68446739 -30.91015625 139.84725705 -30.91015625 146.203125 C-39.6477296 148.01032511 -48.20036346 148.57577068 -57.09057617 148.57373047 C-59.21029398 148.57809952 -61.32791382 148.61455515 -63.44726562 148.65234375 C-80.69245744 148.79633805 -95.63171749 144.33667059 -108.41015625 132.203125 C-120.35076372 119.33240705 -122.60407428 104.03005746 -122.2890625 87.0625 C-121.44346989 68.30792264 -111.28342102 51.89058132 -97.91015625 39.203125 C-97.44738281 38.69652344 -96.98460937 38.18992187 -96.5078125 37.66796875 C-76.66426389 16.36890313 -45.23214659 6.33189326 -17.31835938 2.20410156 C-16.53267578 2.08776367 -15.74699219 1.97142578 -14.9375 1.8515625 C-14.23359131 1.75020996 -13.52968262 1.64885742 -12.80444336 1.54443359 C-4.37388687 0.02543398 -4.37388687 0.02543398 0 0 Z" transform="translate(635.91015625,340.796875)"/>
<path d="M0 0 C1.92283423 2.31531147 3.72331811 4.63808971 5.5 7.0625 C6.03536377 7.78622803 6.57072754 8.50995605 7.12231445 9.25561523 C15.31249843 20.41499885 22.84131824 31.96734542 29.79541016 43.93457031 C30.65547182 45.40926055 31.52319445 46.87949372 32.39599609 48.34667969 C33.84330282 50.78419794 35.2675421 53.23396899 36.6875 55.6875 C37.14640625 56.45425049 37.6053125 57.22100098 38.078125 58.01098633 C38.48933594 58.73310303 38.90054688 59.45521973 39.32421875 60.19921875 C39.8824231 61.15574341 39.8824231 61.15574341 40.4519043 62.1315918 C41 64 41 64 40.21801758 66.10766602 C35.29721443 73.75271416 27.15550905 79.57202126 20 85 C19.45069824 85.42039551 18.90139648 85.84079102 18.33544922 86.27392578 C-1.30025107 101.24756368 -22.99154273 113.01552759 -45.75 122.5625 C-46.71284912 122.96782959 -47.67569824 123.37315918 -48.66772461 123.79077148 C-54.20480127 126.05273233 -59.72177502 127.86721237 -65.51928711 129.34106445 C-68.68581338 130.18216813 -71.75087558 131.24306162 -74.83203125 132.3515625 C-77.52340505 133.15654998 -80.22867245 133.55547273 -83 134 C-83.35481445 132.97583984 -83.70962891 131.95167969 -84.07519531 130.89648438 C-86.72525984 123.29273848 -89.44533216 115.72568368 -92.359375 108.21875 C-92.77733337 107.14052979 -92.77733337 107.14052979 -93.20373535 106.04052734 C-94.33956074 103.1157647 -95.47836074 100.19221751 -96.62451172 97.27148438 C-102.58390691 82.06083761 -102.58390691 82.06083761 -104 74 C-102.21722656 73.25169922 -102.21722656 73.25169922 -100.3984375 72.48828125 C-78.28308028 62.99253642 -58.07688673 50.58355392 -39.60546875 35.16796875 C-36.18489116 32.32176101 -32.69003569 29.57355358 -29.19140625 26.82421875 C-26.93287405 25.01027869 -26.93287405 25.01027869 -24.83984375 22.76953125 C-23 21 -23 21 -21 21 C-20.73574219 20.39671875 -20.47148438 19.7934375 -20.19921875 19.171875 C-18.94244926 16.8957713 -17.84559838 15.83181567 -15.8125 14.25 C-12.34055001 11.40140638 -9.47100134 8.25887308 -6.578125 4.83203125 C-2.41577825 0 -2.41577825 0 0 0 Z" transform="translate(952,524)"/>
<path d="M0 0 C14.46678929 1.16667656 27.91629462 6.16856223 38 17 C42.42031504 22.53445183 46.32536063 28.42484489 49 35 C49.2990625 35.71542969 49.598125 36.43085938 49.90625 37.16796875 C57.97661246 60.66916314 49.36009384 88.66054165 39 110 C38.70335449 110.61552734 38.40670898 111.23105469 38.10107422 111.86523438 C32.41786452 123.45885234 24.8213046 135.54336599 16 145 C15.34 145 14.68 145 14 145 C13.69449219 144.41476562 13.38898437 143.82953125 13.07421875 143.2265625 C4.11248024 126.41383616 -6.3003009 110.50327573 -17.546875 95.140625 C-18.14193848 94.3259375 -18.73700195 93.51125 -19.35009766 92.671875 C-20.51007779 91.08906855 -21.67617848 89.51072465 -22.84912109 87.9375 C-23.37586426 87.22078125 -23.90260742 86.5040625 -24.4453125 85.765625 C-25.14938232 84.81864746 -25.14938232 84.81864746 -25.86767578 83.85253906 C-27.07747697 81.87324381 -27.66618285 80.29219117 -28 78 C-26.91796875 76.2734375 -26.91796875 76.2734375 -25.1875 74.375 C-10.53588945 56.58794479 0.31661094 31.19045433 0.0625 8.125 C0.05798828 7.34125 0.05347656 6.5575 0.04882812 5.75 C0.03714093 3.83329986 0.01920908 1.91663952 0 0 Z" transform="translate(988,433)"/>
<path d="M0 0 C2.36666528 1.4884116 4.64076979 3.06539704 6.91381836 4.69311523 C7.74397461 5.27480469 8.57413086 5.85649414 9.42944336 6.45581055 C16.60663176 11.538735 23.507343 16.93210753 30.28393555 22.53442383 C31.79147778 23.77956881 33.30925045 25.01229944 34.82788086 26.24389648 C41.94522604 32.01776585 48.93307665 37.94310043 55.91381836 43.88061523 C51.69520158 51.04116214 46.40620033 56.87489572 40.71850586 62.86499023 C38.96197714 64.71959327 37.37027541 66.56301952 35.77319336 68.56811523 C34.06234975 70.69588712 32.37034763 72.3768161 30.28881836 74.13061523 C27.09958249 76.85661014 23.96120536 79.62670311 20.85131836 82.44311523 C19.20639451 83.92329324 17.56061188 85.40251764 15.91381836 86.88061523 C15.21385742 87.50967773 14.51389648 88.13874023 13.79272461 88.78686523 C9.14863558 92.88061523 9.14863558 92.88061523 6.91381836 92.88061523 C5.93803437 91.45479293 4.96892921 90.02370146 4.04272461 88.56518555 C-11.95096177 64.6991743 -40.6368596 43.24583755 -65.17602539 29.09936523 C-65.80637695 28.69717773 -66.43672852 28.29499023 -67.08618164 27.88061523 C-67.08618164 27.22061523 -67.08618164 26.56061523 -67.08618164 25.88061523 C-58.76128529 21.53095647 -50.42725334 17.19917135 -42.08618164 12.88061523 C-41.26762695 12.45554687 -40.44907227 12.03047852 -39.60571289 11.5925293 C-32.18922206 7.75257025 -24.68868175 4.13751194 -17.02368164 0.81811523 C-16.33274414 0.50632324 -15.64180664 0.19453125 -14.92993164 -0.12670898 C-9.56776683 -2.37531659 -5.37315927 -2.88308195 0 0 Z" transform="translate(897.086181640625,453.119384765625)"/>
<path d="M0 0 C2.13864601 1.14620244 4.23984273 2.36338253 6.3125 3.625 C18.23724297 10.65639861 30.5479749 15.660294 44 19 C45.13695312 19.28746094 46.27390625 19.57492187 47.4453125 19.87109375 C59.02541764 22.67879906 70.2551128 23.26838794 82.125 23.3125 C82.87179016 23.31611542 83.61858032 23.31973083 84.38800049 23.32345581 C98.98128601 23.35174872 112.83880935 21.58311983 127 18 C129.63365987 22.9221313 131.64475824 27.57903298 133 33 C129.67508015 34.03563077 126.3435106 35.02657286 123 36 C122.35595215 36.19287598 121.7119043 36.38575195 121.04833984 36.58447266 C100.88778742 42.56370139 81.0074074 44.26836144 60.0625 44.375 C59.24309937 44.38294586 58.42369873 44.39089172 57.57946777 44.39907837 C46.05631898 44.48497506 35.2717469 43.37292443 24 41 C22.91132629 40.77580887 22.91132629 40.77580887 21.80065918 40.54708862 C5.98525466 37.28418482 -8.65207304 31.74355777 -23.25 24.875 C-24.11915039 24.46749512 -24.98830078 24.05999023 -25.88378906 23.64013672 C-30.98901071 21.17503262 -35.48405904 18.42967408 -40 15 C-37.21263023 12.72810272 -34.7849153 11.42207561 -31.375 10.3125 C-25.92877856 8.42073244 -20.69533629 6.1666693 -15.4375 3.8125 C-14.63940918 3.45518799 -13.84131836 3.09787598 -13.01904297 2.72973633 C-4.25680637 -1.21279956 -4.25680637 -1.21279956 0 0 Z" transform="translate(697,560)"/>
<path d="M0 0 C2.95920013 1.15560005 5.63399373 2.63286598 8.390625 4.2109375 C9.46828125 4.81679688 10.5459375 5.42265625 11.65625 6.046875 C12.47609375 6.63726562 13.2959375 7.22765625 14.140625 7.8359375 C14.140625 8.8259375 14.140625 9.8159375 14.140625 10.8359375 C13.55385986 11.13661133 12.96709473 11.43728516 12.36254883 11.74707031 C-0.05689765 18.12739366 -12.31242762 24.71148557 -24.40234375 31.6953125 C-33.55031153 36.97834361 -42.7895726 42.1008292 -52.01464844 47.24755859 C-54.49856951 48.63447848 -56.98025191 50.0252741 -59.4609375 51.41796875 C-63.0667822 53.43899992 -66.68280154 55.44079541 -70.30566406 57.43115234 C-72.15583814 58.44892497 -74.0038743 59.47058721 -75.85058594 60.49462891 C-98.89315088 73.24106427 -122.52974754 84.25870607 -146.984375 94.0234375 C-148.09103516 94.46913086 -149.19769531 94.91482422 -150.33789062 95.37402344 C-157.72340028 98.25513452 -165.09381842 100.2541236 -172.859375 101.8359375 C-173.69795188 99.23335426 -174.53040844 96.62908103 -175.359375 94.0234375 C-175.71708984 92.91645508 -175.71708984 92.91645508 -176.08203125 91.78710938 C-177.05877636 88.70338554 -177.859375 86.09097941 -177.859375 82.8359375 C-176.84359375 82.59359375 -175.8278125 82.35125 -174.78125 82.1015625 C-134.86511803 72.44396249 -95.96039762 51.66715951 -60.375 31.37890625 C-54.35151409 27.95392414 -48.22263781 24.72179228 -42.109375 21.4609375 C-32.24822825 16.19702865 -22.41191399 10.89043357 -12.61035156 5.51611328 C-11.35689941 4.8294458 -11.35689941 4.8294458 -10.078125 4.12890625 C-9.35560547 3.7321167 -8.63308594 3.33532715 -7.88867188 2.92651367 C-2.09858683 -0.18516943 -2.09858683 -0.18516943 0 0 Z" transform="translate(791.859375,381.1640625)"/>
<path d="M0 0 C7.32906157 6.05184365 13.13558764 12.75372151 18.36279297 20.70214844 C14.71324398 20.70214844 14.10769705 19.92034426 11.30029297 17.70214844 C-8.40339153 3.55444474 -33.7575307 -1.71490601 -57.57470703 -1.61035156 C-58.81438232 -1.6090625 -60.05405762 -1.60777344 -61.33129883 -1.60644531 C-72.91305712 -1.48781774 -84.22381825 -0.20148938 -95.63720703 1.70214844 C-98.09138315 -3.97099356 -100.09967607 -9.11624552 -100.63720703 -15.29785156 C-97.45036275 -15.94694837 -94.26262108 -16.59153105 -91.07470703 -17.23535156 C-90.17945313 -17.41775391 -89.28419922 -17.60015625 -88.36181641 -17.78808594 C-56.91480736 -24.12356395 -25.58876215 -20.28479863 0 0 Z" transform="translate(1001.63720703125,354.2978515625)"/>
<path d="M0 0 C0.67413211 1.91405367 1.3390332 3.83136026 2 5.75 C2.37125 6.81734375 2.7425 7.8846875 3.125 8.984375 C4 12 4 12 4 16 C2.47934339 16.41731117 0.95845693 16.83378471 -0.5625 17.25 C-1.56023438 17.52328125 -2.55796875 17.7965625 -3.5859375 18.078125 C-6.63097391 18.90035451 -9.68187054 19.69677463 -12.73461914 20.48974609 C-19.67448212 22.30301195 -26.2071149 24.39855962 -32.8125 27.1875 C-35 28 -35 28 -38 28 C-39.98 23.05 -41.96 18.1 -44 13 C-36.41070658 9.84752427 -28.71795844 7.14039311 -20.90039062 4.61572266 C-19.05068134 4.01642065 -17.20495715 3.4048624 -15.359375 2.79296875 C-14.23015625 2.42816406 -13.1009375 2.06335938 -11.9375 1.6875 C-10.93589844 1.36136719 -9.93429687 1.03523438 -8.90234375 0.69921875 C-5.83485209 -0.03978664 -3.1433448 -0.12610744 0 0 Z" transform="translate(889,343)"/>
<path d="M0 0 C3.59797911 3.4951797 6.80927377 7.128228 10 11 C-0.04318586 17.91190521 -10.25621814 24.23545141 -21 30 C-21.60102539 30.32581055 -22.20205078 30.65162109 -22.82128906 30.98730469 C-30.0031159 34.85690988 -30.0031159 34.85690988 -33 36 C-36 35 -36 35 -37.38671875 32.56640625 C-37.81597656 31.57511719 -38.24523437 30.58382812 -38.6875 29.5625 C-39.12449219 28.57378906 -39.56148437 27.58507812 -40.01171875 26.56640625 C-41 24 -41 24 -41 22 C-39.88625 21.52691406 -38.7725 21.05382812 -37.625 20.56640625 C-29.66742325 17.13746036 -21.86584997 13.5689392 -14.3125 9.3125 C-13.67892578 8.95679932 -13.04535156 8.60109863 -12.39257812 8.23461914 C-8.05940615 5.74350476 -4.03091821 2.95462683 0 0 Z" transform="translate(878,551)"/>
</svg>
